<svg version="1.1" xmlns="http://www.w3.org/2000/svg" viewBox="0 0 835.375 385" width="835.375" height="385" filter="invert(93%) hue-rotate(180deg)">
  <!-- svg-source:excalidraw -->
  
  <defs>
    <style class="style-fonts">
      @font-face {
        font-family: "Virgil";
        src: url("https://excalidraw.com/Virgil.woff2");
      }
      @font-face {
        font-family: "Cascadia";
        src: url("https://excalidraw.com/Cascadia.woff2");
      }
    </style>
    
  </defs>
  <rect x="0" y="0" width="835.375" height="385" fill="#ffffff"></rect><g stroke-linecap="round" transform="translate(58 10) rotate(0 84.5 15)"><path d="M7.5 0 M7.5 0 C43.88 0, 80.26 0, 161.5 0 M7.5 0 C45.29 0, 83.09 0, 161.5 0 M161.5 0 C166.5 0, 169 2.5, 169 7.5 M161.5 0 C166.5 0, 169 2.5, 169 7.5 M169 7.5 C169 13.11, 169 18.73, 169 22.5 M169 7.5 C169 11.75, 169 16, 169 22.5 M169 22.5 C169 27.5, 166.5 30, 161.5 30 M169 22.5 C169 27.5, 166.5 30, 161.5 30 M161.5 30 C108.19 30, 54.88 30, 7.5 30 M161.5 30 C126.41 30, 91.32 30, 7.5 30 M7.5 30 C2.5 30, 0 27.5, 0 22.5 M7.5 30 C2.5 30, 0 27.5, 0 22.5 M0 22.5 C0 17.01, 0 11.53, 0 7.5 M0 22.5 C0 17.23, 0 11.97, 0 7.5 M0 7.5 C0 2.5, 2.5 0, 7.5 0 M0 7.5 C0 2.5, 2.5 0, 7.5 0" stroke="#1971c2" stroke-width="1" fill="none"></path></g><g transform="translate(119.0625 15.399999999999977) rotate(0 23.4375 9.600000000000023)"><text x="23.4375" y="0" font-family="Cascadia, Segoe UI Emoji" font-size="16px" fill="#1971c2" text-anchor="middle" style="white-space: pre;" direction="ltr" dominant-baseline="text-before-edge">user2</text></g><g stroke-linecap="round" transform="translate(62 55) rotate(0 84.5 16.5)"><path d="M8.25 0 M8.25 0 C44.84 0, 81.44 0, 160.75 0 M8.25 0 C65.13 0, 122.01 0, 160.75 0 M160.75 0 C166.25 0, 169 2.75, 169 8.25 M160.75 0 C166.25 0, 169 2.75, 169 8.25 M169 8.25 C169 13.69, 169 19.14, 169 24.75 M169 8.25 C169 12.73, 169 17.21, 169 24.75 M169 24.75 C169 30.25, 166.25 33, 160.75 33 M169 24.75 C169 30.25, 166.25 33, 160.75 33 M160.75 33 C101.3 33, 41.85 33, 8.25 33 M160.75 33 C124.24 33, 87.73 33, 8.25 33 M8.25 33 C2.75 33, 0 30.25, 0 24.75 M8.25 33 C2.75 33, 0 30.25, 0 24.75 M0 24.75 C0 20.59, 0 16.42, 0 8.25 M0 24.75 C0 18.67, 0 12.59, 0 8.25 M0 8.25 C0 2.75, 2.75 0, 8.25 0 M0 8.25 C0 2.75, 2.75 0, 8.25 0" stroke="#1971c2" stroke-width="1" fill="none"></path></g><g transform="translate(127.75 61.89999999999998) rotate(0 18.75 9.600000000000023)"><text x="18.75" y="0" font-family="Cascadia, Segoe UI Emoji" font-size="16px" fill="#1971c2" text-anchor="middle" style="white-space: pre;" direction="ltr" dominant-baseline="text-before-edge">user</text></g><g stroke-linecap="round" transform="translate(60 95) rotate(0 84.5 16.5)"><path d="M8.25 0 M8.25 0 C45.99 0, 83.73 0, 160.75 0 M8.25 0 C56.17 0, 104.1 0, 160.75 0 M160.75 0 C166.25 0, 169 2.75, 169 8.25 M160.75 0 C166.25 0, 169 2.75, 169 8.25 M169 8.25 C169 12.67, 169 17.09, 169 24.75 M169 8.25 C169 13.84, 169 19.42, 169 24.75 M169 24.75 C169 30.25, 166.25 33, 160.75 33 M169 24.75 C169 30.25, 166.25 33, 160.75 33 M160.75 33 C118.06 33, 75.36 33, 8.25 33 M160.75 33 C120.42 33, 80.08 33, 8.25 33 M8.25 33 C2.75 33, 0 30.25, 0 24.75 M8.25 33 C2.75 33, 0 30.25, 0 24.75 M0 24.75 C0 20.26, 0 15.77, 0 8.25 M0 24.75 C0 19.88, 0 15, 0 8.25 M0 8.25 C0 2.75, 2.75 0, 8.25 0 M0 8.25 C0 2.75, 2.75 0, 8.25 0" stroke="#1971c2" stroke-width="1" fill="none"></path></g><g transform="translate(116.375 101.89999999999998) rotate(0 28.125 9.600000000000023)"><text x="28.125" y="0" font-family="Cascadia, Segoe UI Emoji" font-size="16px" fill="#1971c2" text-anchor="middle" style="white-space: pre;" direction="ltr" dominant-baseline="text-before-edge">myName</text></g><g stroke-linecap="round" transform="translate(64 144) rotate(0 84.5 16.5)"><path d="M8.25 0 M8.25 0 C59.39 0, 110.53 0, 160.75 0 M8.25 0 C43.64 0, 79.03 0, 160.75 0 M160.75 0 C166.25 0, 169 2.75, 169 8.25 M160.75 0 C166.25 0, 169 2.75, 169 8.25 M169 8.25 C169 12.02, 169 15.8, 169 24.75 M169 8.25 C169 12.42, 169 16.59, 169 24.75 M169 24.75 C169 30.25, 166.25 33, 160.75 33 M169 24.75 C169 30.25, 166.25 33, 160.75 33 M160.75 33 C114.64 33, 68.53 33, 8.25 33 M160.75 33 C124.29 33, 87.83 33, 8.25 33 M8.25 33 C2.75 33, 0 30.25, 0 24.75 M8.25 33 C2.75 33, 0 30.25, 0 24.75 M0 24.75 C0 21.17, 0 17.58, 0 8.25 M0 24.75 C0 18.82, 0 12.89, 0 8.25 M0 8.25 C0 2.75, 2.75 0, 8.25 0 M0 8.25 C0 2.75, 2.75 0, 8.25 0" stroke="#1971c2" stroke-width="1" fill="none"></path></g><g transform="translate(96.9375 150.89999999999998) rotate(0 51.5625 9.600000000000023)"><text x="51.5625" y="0" font-family="Cascadia, Segoe UI Emoji" font-size="16px" fill="#1971c2" text-anchor="middle" style="white-space: pre;" direction="ltr" dominant-baseline="text-before-edge">naotherName</text></g><g stroke-linecap="round" transform="translate(68 193) rotate(0 84.5 15)"><path d="M7.5 0 M7.5 0 C48.46 0, 89.41 0, 161.5 0 M7.5 0 C65.05 0, 122.6 0, 161.5 0 M161.5 0 C166.5 0, 169 2.5, 169 7.5 M161.5 0 C166.5 0, 169 2.5, 169 7.5 M169 7.5 C169 12.02, 169 16.55, 169 22.5 M169 7.5 C169 11.49, 169 15.47, 169 22.5 M169 22.5 C169 27.5, 166.5 30, 161.5 30 M169 22.5 C169 27.5, 166.5 30, 161.5 30 M161.5 30 C106.76 30, 52.02 30, 7.5 30 M161.5 30 C114.38 30, 67.26 30, 7.5 30 M7.5 30 C2.5 30, 0 27.5, 0 22.5 M7.5 30 C2.5 30, 0 27.5, 0 22.5 M0 22.5 C0 18.22, 0 13.95, 0 7.5 M0 22.5 C0 17.76, 0 13.02, 0 7.5 M0 7.5 C0 2.5, 2.5 0, 7.5 0 M0 7.5 C0 2.5, 2.5 0, 7.5 0" stroke="#1971c2" stroke-width="1" fill="none"></path></g><g transform="translate(124.375 198.4000000000001) rotate(0 28.125 9.600000000000023)"><text x="28.125" y="0" font-family="Cascadia, Segoe UI Emoji" font-size="16px" fill="#1971c2" text-anchor="middle" style="white-space: pre;" direction="ltr" dominant-baseline="text-before-edge">myName</text></g><g transform="translate(124 239) rotate(0 23.4375 9.600000000000023)"><text x="0" y="0" font-family="Cascadia, Segoe UI Emoji" font-size="16px" fill="#1971c2" text-anchor="start" style="white-space: pre;" direction="ltr" dominant-baseline="text-before-edge">Stack</text></g><g transform="translate(22 290) rotate(0 187.5 38.39999999999998)"><text x="0" y="0" font-family="Cascadia, Segoe UI Emoji" font-size="16px" fill="#1971c2" text-anchor="start" style="white-space: pre;" direction="ltr" dominant-baseline="text-before-edge">when we assign anotherName = myName</text><text x="0" y="19.2" font-family="Cascadia, Segoe UI Emoji" font-size="16px" fill="#1971c2" text-anchor="start" style="white-space: pre;" direction="ltr" dominant-baseline="text-before-edge">it will copy the myName reference memory</text><text x="0" y="38.4" font-family="Cascadia, Segoe UI Emoji" font-size="16px" fill="#1971c2" text-anchor="start" style="white-space: pre;" direction="ltr" dominant-baseline="text-before-edge">but does not copy the value. </text><text x="0" y="57.599999999999994" font-family="Cascadia, Segoe UI Emoji" font-size="16px" fill="#1971c2" text-anchor="start" style="white-space: pre;" direction="ltr" dominant-baseline="text-before-edge">that's the value will remain same.</text></g><g stroke-linecap="round" transform="translate(10 275) rotate(0 197.5 50)"><path d="M25 0 M25 0 C94.3 0, 163.59 0, 370 0 M25 0 C149.98 0, 274.96 0, 370 0 M370 0 C386.67 0, 395 8.33, 395 25 M370 0 C386.67 0, 395 8.33, 395 25 M395 25 C395 44.99, 395 64.97, 395 75 M395 25 C395 37.69, 395 50.37, 395 75 M395 75 C395 91.67, 386.67 100, 370 100 M395 75 C395 91.67, 386.67 100, 370 100 M370 100 C273.17 100, 176.34 100, 25 100 M370 100 C269.85 100, 169.7 100, 25 100 M25 100 C8.33 100, 0 91.67, 0 75 M25 100 C8.33 100, 0 91.67, 0 75 M0 75 C0 55.3, 0 35.6, 0 25 M0 75 C0 64.03, 0 53.06, 0 25 M0 25 C0 8.33, 8.33 0, 25 0 M0 25 C0 8.33, 8.33 0, 25 0" stroke="#1971c2" stroke-width="1" fill="none"></path></g><g stroke-linecap="round" transform="translate(432 38) rotate(0 155.5 99)"><path d="M32 0 M32 0 C108.91 0, 185.82 0, 279 0 M32 0 C130.57 0, 229.15 0, 279 0 M279 0 C300.33 0, 311 10.67, 311 32 M279 0 C300.33 0, 311 10.67, 311 32 M311 32 C311 73, 311 113.99, 311 166 M311 32 C311 66.02, 311 100.05, 311 166 M311 166 C311 187.33, 300.33 198, 279 198 M311 166 C311 187.33, 300.33 198, 279 198 M279 198 C216.14 198, 153.27 198, 32 198 M279 198 C212.65 198, 146.3 198, 32 198 M32 198 C10.67 198, 0 187.33, 0 166 M32 198 C10.67 198, 0 187.33, 0 166 M0 166 C0 133.81, 0 101.62, 0 32 M0 166 C0 121.39, 0 76.78, 0 32 M0 32 C0 10.67, 10.67 0, 32 0 M0 32 C0 10.67, 10.67 0, 32 0" stroke="#1971c2" stroke-width="1" fill="none"></path></g><g transform="translate(468 95) rotate(0 126.5625 38.39999999999998)"><text x="0" y="0" font-family="Cascadia, Segoe UI Emoji" font-size="16px" fill="#1971c2" text-anchor="start" style="white-space: pre;" direction="ltr" dominant-baseline="text-before-edge">let user = {</text><text x="0" y="19.2" font-family="Cascadia, Segoe UI Emoji" font-size="16px" fill="#1971c2" text-anchor="start" style="white-space: pre;" direction="ltr" dominant-baseline="text-before-edge">  email: "user@gogole.com",</text><text x="0" y="38.4" font-family="Cascadia, Segoe UI Emoji" font-size="16px" fill="#1971c2" text-anchor="start" style="white-space: pre;" direction="ltr" dominant-baseline="text-before-edge">  upi: "user@bl",</text><text x="0" y="57.599999999999994" font-family="Cascadia, Segoe UI Emoji" font-size="16px" fill="#1971c2" text-anchor="start" style="white-space: pre;" direction="ltr" dominant-baseline="text-before-edge">};</text></g><g stroke-linecap="round"><g transform="translate(234 72) rotate(0 112 36)"><path d="M0 0 C37.33 12, 186.67 60, 224 72 M0 0 C37.33 12, 186.67 60, 224 72" stroke="#1971c2" stroke-width="1" fill="none"></path></g><g transform="translate(234 72) rotate(0 112 36)"><path d="M224 72 L209.12 73.88 L213 61.8 L224 72" stroke="none" stroke-width="0" fill="#1971c2" fill-rule="evenodd"></path><path d="M224 72 C219.22 72.6, 214.44 73.2, 209.12 73.88 M224 72 C220.57 72.43, 217.13 72.87, 209.12 73.88 M209.12 73.88 C210.29 70.22, 211.47 66.56, 213 61.8 M209.12 73.88 C209.96 71.27, 210.79 68.66, 213 61.8 M213 61.8 C217.3 65.79, 221.6 69.77, 224 72 M213 61.8 C216.72 65.26, 220.45 68.71, 224 72 M224 72 C224 72, 224 72, 224 72 M224 72 C224 72, 224 72, 224 72" stroke="#1971c2" stroke-width="1" fill="none"></path></g></g><mask></mask><g stroke-linecap="round"><g transform="translate(230 24) rotate(0 115 51)"><path d="M0 0 C38.33 17, 191.67 85, 230 102 M0 0 C38.33 17, 191.67 85, 230 102" stroke="#1971c2" stroke-width="1" fill="none"></path></g><g transform="translate(230 24) rotate(0 115 51)"><path d="M230 102 L215 102.28 L220.14 90.69 L230 102" stroke="none" stroke-width="0" fill="#1971c2" fill-rule="evenodd"></path><path d="M230 102 C225.28 102.09, 220.56 102.18, 215 102.28 M230 102 C225.69 102.08, 221.38 102.16, 215 102.28 M215 102.28 C216.05 99.92, 217.1 97.55, 220.14 90.69 M215 102.28 C216.74 98.36, 218.48 94.44, 220.14 90.69 M220.14 90.69 C222.16 93.01, 224.18 95.33, 230 102 M220.14 90.69 C223.17 94.17, 226.21 97.65, 230 102 M230 102 C230 102, 230 102, 230 102 M230 102 C230 102, 230 102, 230 102" stroke="#1971c2" stroke-width="1" fill="none"></path></g></g><mask></mask><g transform="translate(571 251) rotate(0 51.5625 9.600000000000023)"><text x="0" y="0" font-family="Cascadia, Segoe UI Emoji" font-size="16px" fill="#1971c2" text-anchor="start" style="white-space: pre;" direction="ltr" dominant-baseline="text-before-edge">Heap Memory</text></g><g transform="translate(516 299) rotate(0 154.6875 28.799999999999955)"><text x="0" y="0" font-family="Cascadia, Segoe UI Emoji" font-size="16px" fill="#1971c2" text-anchor="start" style="white-space: pre;" direction="ltr" dominant-baseline="text-before-edge">Here a reference will share so</text><text x="0" y="19.2" font-family="Cascadia, Segoe UI Emoji" font-size="16px" fill="#1971c2" text-anchor="start" style="white-space: pre;" direction="ltr" dominant-baseline="text-before-edge">the value will be changed in both</text><text x="0" y="38.4" font-family="Cascadia, Segoe UI Emoji" font-size="16px" fill="#1971c2" text-anchor="start" style="white-space: pre;" direction="ltr" dominant-baseline="text-before-edge">variables</text></g></svg>